<?xml version="1.0"?>
<svg version="1.1" xmlns="http://www.w3.org/2000/svg" xmlns:xlink="http://www.w3.org/1999/xlink" width="49" height="64">
    <desc iVinci="yes" version="4.4" gridStep="20" showGrid="no" snapToGrid="no" codePlatform="0"/>
    <g id="Layer1">
        <g id="Shape1">
            <desc type="0" basicInfo-basicType="0" basicInfo-roundedRectRadius="12" basicInfo-polygonSides="6" basicInfo-starPoints="5" bounding="rect(-24.5,-32,49,64)" text="" font-familyName="" font-pixelSize="20" font-bold="0" font-underline="0" font-alignment="1" strokeStyle="0" markerStart="0" markerEnd="0" shadowEnabled="0" shadowOffsetX="0" shadowOffsetY="2" shadowBlur="4" shadowOpacity="160" blurEnabled="0" blurRadius="4" transform="matrix(1,0,0,1,24.5,32)" pers-center="0,0" pers-size="0,0" pers-start="0,0" pers-end="0,0" locked="0" mesh="" flag=""/>
            <path id="shapePath1" d="M49,16.842 L49,58.947 C49,61.738 46.73,64 43.931,64 L5.069,64 C2.269,64 0,61.738 0,58.947 L0,5.053 C0,2.262 2.269,0 5.069,0 L32.103,0 L49,16.842 Z" style="stroke:none;fill-rule:evenodd;fill:#ffaa46;fill-opacity:1;"/>
        </g>
        <g id="Shape2">
            <desc type="0" basicInfo-basicType="0" basicInfo-roundedRectRadius="12" basicInfo-polygonSides="6" basicInfo-starPoints="5" bounding="rect(-8.996,-8.9975,17.992,17.995)" text="" font-familyName="" font-pixelSize="20" font-bold="0" font-underline="0" font-alignment="1" strokeStyle="0" markerStart="0" markerEnd="0" shadowEnabled="0" shadowOffsetX="0" shadowOffsetY="2" shadowBlur="4" shadowOpacity="160" blurEnabled="0" blurRadius="4" transform="matrix(1,0,0,1,40.004,8.9975)" pers-center="0,0" pers-size="0,0" pers-start="0,0" pers-end="0,0" locked="0" mesh="" flag=""/>
            <path id="shapePath2" d="M49,15.899 L49,17.995 L35.187,17.995 C32.327,17.995 31.008,15.675 31.008,12.814 L31.008,0 L33.1,0 L49,15.899 Z" style="stroke:none;fill-rule:evenodd;fill:#db9e51;fill-opacity:1;"/>
        </g>
        <g id="Shape3">
            <desc type="2" basicInfo-basicType="0" basicInfo-roundedRectRadius="12" basicInfo-polygonSides="6" basicInfo-starPoints="5" bounding="rect(-16.4645,-9.12224,32.929,18.2445)" text="CSS" font-familyName="Helvetica" font-pixelSize="20" font-bold="0" font-underline="0" font-alignment="1" strokeStyle="0" markerStart="0" markerEnd="0" shadowEnabled="0" shadowOffsetX="0" shadowOffsetY="2" shadowBlur="4" shadowOpacity="160" blurEnabled="0" blurRadius="4" transform="matrix(1,0,0,1,23.2506,34.1528)" pers-center="0,0" pers-size="0,0" pers-start="0,0" pers-end="0,0" locked="0" mesh="" flag=""/>
            <path id="shapePath3" d="M14.5006,26.1332 C15.5032,27.0903 16.0598,28.1775 16.1705,29.395 L14.276,29.395 C14.0611,28.4705 13.6331,27.7381 12.9918,27.1977 C12.3505,26.6573 11.4504,26.3871 10.2916,26.3871 C8.87883,26.3871 7.73788,26.8836 6.86874,27.8764 C5.9996,28.8692 5.56503,30.391 5.56503,32.4418 C5.56503,34.1215 5.95728,35.4838 6.74179,36.5287 C7.52629,37.5737 8.69654,38.0961 10.2525,38.0961 C11.6848,38.0961 12.7753,37.546 13.524,36.4457 C13.9212,35.8663 14.2174,35.1046 14.4127,34.1606 L16.3072,34.1606 C16.1379,35.671 15.5781,36.9373 14.6275,37.9594 C13.4882,39.1899 11.9517,39.8051 10.0182,39.8051 C8.35149,39.8051 6.95175,39.3005 5.81894,38.2914 C4.32805,36.9568 3.58261,34.8963 3.58261,32.1098 C3.58261,29.9939 4.14251,28.2589 5.2623,26.9047 C6.47323,25.4334 8.14316,24.6977 10.2721,24.6977 C12.0885,24.6977 13.498,25.1762 14.5006,26.1332 M19.9342,34.8051 C19.9797,35.6189 20.1718,36.2797 20.5103,36.7875 C21.1549,37.738 22.2909,38.2133 23.9185,38.2133 C24.6477,38.2133 25.3118,38.1091 25.9107,37.9008 C27.0696,37.4972 27.649,36.7745 27.649,35.7328 C27.649,34.9516 27.4049,34.395 26.9166,34.0629 C26.4218,33.7374 25.6471,33.4542 24.5924,33.2133 L22.649,32.7739 C21.3795,32.4874 20.481,32.1716 19.9537,31.8266 C19.0422,31.2276 18.5865,30.3325 18.5865,29.141 C18.5865,27.852 19.0325,26.794 19.9244,25.9672 C20.8163,25.1404 22.0794,24.727 23.7135,24.727 C25.2174,24.727 26.495,25.0899 27.5465,25.8158 C28.5979,26.5418 29.1236,27.7022 29.1236,29.2973 L27.2975,29.2973 C27.1998,28.5291 26.9915,27.9399 26.6725,27.5297 C26.08,26.781 25.0741,26.4067 23.6549,26.4067 C22.509,26.4067 21.6855,26.6476 21.1842,27.1293 C20.6829,27.6111 20.4322,28.171 20.4322,28.809 C20.4322,29.5121 20.7252,30.0265 21.3111,30.352 C21.6952,30.5603 22.5644,30.8207 23.9185,31.1332 L25.9303,31.5922 C26.9003,31.8136 27.649,32.1163 28.1764,32.5004 C29.0878,33.171 29.5435,34.1443 29.5435,35.4203 C29.5435,37.0089 28.9657,38.145 27.8101,38.8285 C26.6545,39.5121 25.3118,39.8539 23.7818,39.8539 C21.998,39.8539 20.6015,39.3982 19.5924,38.4867 C18.5833,37.5818 18.0885,36.3546 18.108,34.8051 L19.9342,34.8051 M33.2623,34.8051 C33.3079,35.6189 33.4999,36.2797 33.8385,36.7875 C34.483,37.738 35.6191,38.2133 37.2467,38.2133 C37.9758,38.2133 38.6399,38.1091 39.2389,37.9008 C40.3977,37.4972 40.9771,36.7745 40.9771,35.7328 C40.9771,34.9516 40.733,34.395 40.2447,34.0629 C39.7499,33.7374 38.9752,33.4542 37.9205,33.2133 L35.9771,32.7739 C34.7076,32.4874 33.8092,32.1716 33.2818,31.8266 C32.3704,31.2276 31.9146,30.3325 31.9146,29.141 C31.9146,27.852 32.3606,26.794 33.2525,25.9672 C34.1445,25.1404 35.4075,24.727 37.0416,24.727 C38.5455,24.727 39.8232,25.0899 40.8746,25.8158 C41.926,26.5418 42.4518,27.7022 42.4518,29.2973 L40.6256,29.2973 C40.5279,28.5291 40.3196,27.9399 40.0006,27.5297 C39.4081,26.781 38.4023,26.4067 36.983,26.4067 C35.8372,26.4067 35.0136,26.6476 34.5123,27.1293 C34.011,27.6111 33.7603,28.171 33.7603,28.809 C33.7603,29.5121 34.0533,30.0265 34.6393,30.352 C35.0234,30.5603 35.8925,30.8207 37.2467,31.1332 L39.2584,31.5922 C40.2284,31.8136 40.9771,32.1163 41.5045,32.5004 C42.4159,33.171 42.8717,34.1443 42.8717,35.4203 C42.8717,37.0089 42.2939,38.145 41.1383,38.8285 C39.9827,39.5121 38.6399,39.8539 37.11,39.8539 C35.3261,39.8539 33.9296,39.3982 32.9205,38.4867 C31.9114,37.5818 31.4166,36.3546 31.4361,34.8051 L33.2623,34.8051 " style="stroke:none;fill-rule:nonzero;fill:#ffffff;fill-opacity:1;"/>
        </g>
    </g>
</svg>
