<?xml version="1.0"?>
<svg version="1.1" xmlns="http://www.w3.org/2000/svg" xmlns:xlink="http://www.w3.org/1999/xlink" width="49" height="64">
    <desc iVinci="yes" version="4.4" gridStep="20" showGrid="no" snapToGrid="no" codePlatform="0"/>
    <g id="Layer1">
        <g id="Shape1">
            <desc type="0" basicInfo-basicType="0" basicInfo-roundedRectRadius="12" basicInfo-polygonSides="6" basicInfo-starPoints="5" bounding="rect(-24.5,-32,49,64)" text="" font-familyName="" font-pixelSize="20" font-bold="0" font-underline="0" font-alignment="1" strokeStyle="0" markerStart="0" markerEnd="0" shadowEnabled="0" shadowOffsetX="0" shadowOffsetY="2" shadowBlur="4" shadowOpacity="160" blurEnabled="0" blurRadius="4" transform="matrix(1,0,0,1,24.5,32)" pers-center="0,0" pers-size="0,0" pers-start="0,0" pers-end="0,0" locked="0" mesh="" flag=""/>
            <path id="shapePath1" d="M49,16.842 L49,58.947 C49,61.738 46.73,64 43.931,64 L5.069,64 C2.269,64 0,61.738 0,58.947 L0,5.053 C0,2.262 2.269,0 5.069,0 L32.103,0 L49,16.842 Z" style="stroke:none;fill-rule:nonzero;fill:#b5d6e9;fill-opacity:1;"/>
        </g>
        <g id="Shape2">
            <desc type="0" basicInfo-basicType="0" basicInfo-roundedRectRadius="12" basicInfo-polygonSides="6" basicInfo-starPoints="5" bounding="rect(-8.996,-8.9975,17.992,17.995)" text="" font-familyName="" font-pixelSize="20" font-bold="0" font-underline="0" font-alignment="1" strokeStyle="0" markerStart="0" markerEnd="0" shadowEnabled="0" shadowOffsetX="0" shadowOffsetY="2" shadowBlur="4" shadowOpacity="160" blurEnabled="0" blurRadius="4" transform="matrix(1,0,0,1,40.004,8.9975)" pers-center="0,0" pers-size="0,0" pers-start="0,0" pers-end="0,0" locked="0" mesh="" flag=""/>
            <path id="shapePath2" d="M49,15.899 L49,17.995 L35.187,17.995 C32.327,17.995 31.008,15.675 31.008,12.814 L31.008,0 L33.1,0 L49,15.899 Z" style="stroke:none;fill-rule:nonzero;fill:#c8b886;fill-opacity:1;"/>
        </g>
        <g id="Shape3">
            <desc type="2" basicInfo-basicType="0" basicInfo-roundedRectRadius="12" basicInfo-polygonSides="6" basicInfo-starPoints="5" bounding="rect(-12.3063,-8.10717,24.6125,16.2143)" text="???" font-familyName="Helvetica" font-pixelSize="20" font-bold="0" font-underline="0" font-alignment="1" strokeStyle="0" markerStart="0" markerEnd="0" shadowEnabled="0" shadowOffsetX="0" shadowOffsetY="2" shadowBlur="4" shadowOpacity="160" blurEnabled="0" blurRadius="4" transform="matrix(1,0,0,1,23.9889,40.9932)" pers-center="0,0" pers-size="0,0" pers-start="0,0" pers-end="0,0" locked="0" mesh="" flag=""/>
            <path id="shapePath3" d="M12.1471,44.2588 L14.0905,44.2588 L14.0905,46.2901 L12.1471,46.2901 L12.1471,44.2588 M10.0475,33.043 C10.8418,32.1869 11.9323,31.7588 13.319,31.7588 C14.6016,31.7588 15.6286,32.125 16.4001,32.8575 C17.1715,33.5899 17.5573,34.5257 17.5573,35.6651 C17.5573,36.3552 17.4157,36.9151 17.1325,37.3448 C16.8493,37.7744 16.278,38.406 15.4186,39.2393 C14.7936,39.8448 14.3883,40.3575 14.2028,40.7774 C14.0172,41.1973 13.9245,41.8174 13.9245,42.6377 L12.1862,42.6377 C12.1862,41.7067 12.2969,40.9564 12.5182,40.3868 C12.7396,39.8171 13.2246,39.1644 13.9733,38.4287 L14.7545,37.6573 C14.9889,37.4359 15.1777,37.2048 15.321,36.9639 C15.5814,36.5407 15.7116,36.1013 15.7116,35.6455 C15.7116,35.0075 15.5211,34.4541 15.1403,33.9854 C14.7594,33.5166 14.1295,33.2823 13.2506,33.2823 C12.1634,33.2823 11.4114,33.6859 10.9948,34.4932 C10.7604,34.9424 10.6269,35.5902 10.5944,36.4366 L8.85611,36.4366 C8.85611,35.0303 9.25324,33.8991 10.0475,33.043 M23.2565,44.2588 L25.1999,44.2588 L25.1999,46.2901 L23.2565,46.2901 L23.2565,44.2588 M21.1569,33.043 C21.9512,32.1869 23.0417,31.7588 24.4284,31.7588 C25.7109,31.7588 26.7379,32.125 27.5094,32.8575 C28.2809,33.5899 28.6667,34.5257 28.6667,35.6651 C28.6667,36.3552 28.5251,36.9151 28.2418,37.3448 C27.9586,37.7744 27.3874,38.406 26.528,39.2393 C25.903,39.8448 25.4977,40.3575 25.3122,40.7774 C25.1266,41.1973 25.0338,41.8174 25.0338,42.6377 L23.2956,42.6377 C23.2956,41.7067 23.4062,40.9564 23.6276,40.3868 C23.8489,39.8171 24.334,39.1644 25.0827,38.4287 L25.8639,37.6573 C26.0983,37.4359 26.2871,37.2048 26.4303,36.9639 C26.6907,36.5407 26.821,36.1013 26.821,35.6455 C26.821,35.0075 26.6305,34.4541 26.2497,33.9854 C25.8688,33.5166 25.2389,33.2823 24.36,33.2823 C23.2728,33.2823 22.5208,33.6859 22.1042,34.4932 C21.8698,34.9424 21.7363,35.5902 21.7038,36.4366 L19.9655,36.4366 C19.9655,35.0303 20.3626,33.8991 21.1569,33.043 M34.3659,44.2588 L36.3092,44.2588 L36.3092,46.2901 L34.3659,46.2901 L34.3659,44.2588 M32.2663,33.043 C33.0605,32.1869 34.151,31.7588 35.5378,31.7588 C36.8203,31.7588 37.8473,32.125 38.6188,32.8575 C39.3903,33.5899 39.776,34.5257 39.776,35.6651 C39.776,36.3552 39.6344,36.9151 39.3512,37.3448 C39.068,37.7744 38.4967,38.406 37.6374,39.2393 C37.0124,39.8448 36.6071,40.3575 36.4215,40.7774 C36.236,41.1973 36.1432,41.8174 36.1432,42.6377 L34.4049,42.6377 C34.4049,41.7067 34.5156,40.9564 34.737,40.3868 C34.9583,39.8171 35.4433,39.1644 36.192,38.4287 L36.9733,37.6573 C37.2077,37.4359 37.3965,37.2048 37.5397,36.9639 C37.8001,36.5407 37.9303,36.1013 37.9303,35.6455 C37.9303,35.0075 37.7399,34.4541 37.359,33.9854 C36.9782,33.5166 36.3483,33.2823 35.4694,33.2823 C34.3821,33.2823 33.6302,33.6859 33.2135,34.4932 C32.9792,34.9424 32.8457,35.5902 32.8131,36.4366 L31.0749,36.4366 C31.0749,35.0303 31.472,33.8991 32.2663,33.043 " style="stroke:none;fill-rule:nonzero;fill:#8a7f5c;fill-opacity:1;"/>
        </g>
    </g>
</svg>
