<?xml version="1.0"?>
<svg version="1.1" xmlns="http://www.w3.org/2000/svg" xmlns:xlink="http://www.w3.org/1999/xlink" width="49" height="64">
    <desc iVinci="yes" version="4.4" gridStep="20" showGrid="no" snapToGrid="no" codePlatform="0"/>
    <g id="Layer1">
        <g id="Shape1">
            <desc type="0" basicInfo-basicType="0" basicInfo-roundedRectRadius="12" basicInfo-polygonSides="6" basicInfo-starPoints="5" bounding="rect(-24.5,-32,49,64)" text="" font-familyName="" font-pixelSize="20" font-bold="0" font-underline="0" font-alignment="1" strokeStyle="0" markerStart="0" markerEnd="0" shadowEnabled="0" shadowOffsetX="0" shadowOffsetY="2" shadowBlur="4" shadowOpacity="160" blurEnabled="0" blurRadius="4" transform="matrix(1,0,0,1,24.5,32)" pers-center="0,0" pers-size="0,0" pers-start="0,0" pers-end="0,0" locked="0" mesh="" flag=""/>
            <path id="shapePath1" d="M49,16.842 L49,58.947 C49,61.738 46.73,64 43.931,64 L5.069,64 C2.269,64 0,61.738 0,58.947 L0,5.053 C0,2.262 2.269,0 5.069,0 L32.103,0 L49,16.842 Z" style="stroke:none;fill-rule:nonzero;fill:#4b5eff;fill-opacity:1;"/>
        </g>
        <g id="Shape2">
            <desc type="0" basicInfo-basicType="0" basicInfo-roundedRectRadius="12" basicInfo-polygonSides="6" basicInfo-starPoints="5" bounding="rect(-8.996,-8.9975,17.992,17.995)" text="" font-familyName="" font-pixelSize="20" font-bold="0" font-underline="0" font-alignment="1" strokeStyle="0" markerStart="0" markerEnd="0" shadowEnabled="0" shadowOffsetX="0" shadowOffsetY="2" shadowBlur="4" shadowOpacity="160" blurEnabled="0" blurRadius="4" transform="matrix(1,0,0,1,40.004,8.9975)" pers-center="0,0" pers-size="0,0" pers-start="0,0" pers-end="0,0" locked="0" mesh="" flag=""/>
            <path id="shapePath2" d="M49,15.899 L49,17.995 L35.187,17.995 C32.327,17.995 31.008,15.675 31.008,12.814 L31.008,0 L33.1,0 L49,15.899 Z" style="stroke:none;fill-rule:nonzero;fill:#353ea5;fill-opacity:1;"/>
        </g>
        <g id="Shape3">
            <desc type="2" basicInfo-basicType="0" basicInfo-roundedRectRadius="12" basicInfo-polygonSides="6" basicInfo-starPoints="5" bounding="rect(-14.808,-7.65246,29.616,15.3049)" text="JS" font-familyName="Helvetica" font-pixelSize="20" font-bold="0" font-underline="0" font-alignment="1" strokeStyle="0" markerStart="0" markerEnd="0" shadowEnabled="0" shadowOffsetX="0" shadowOffsetY="2" shadowBlur="4" shadowOpacity="160" blurEnabled="0" blurRadius="4" transform="matrix(1,0,0,1,25.8395,34.7839)" pers-center="0,0" pers-size="0,0" pers-start="0,0" pers-end="0,0" locked="0" mesh="" flag=""/>
            <path id="shapePath3" d="M22.7477,36.2566 C22.7477,37.4675 22.5686,38.4082 22.2106,39.0788 C21.5465,40.3028 20.2835,40.9148 18.4215,40.9148 C17.3473,40.9148 16.4293,40.6234 15.6676,40.0407 C14.9059,39.4581 14.525,38.4213 14.525,36.9304 L14.525,35.905 L16.3512,35.905 L16.3512,36.9304 C16.3512,37.7116 16.5253,38.2992 16.8736,38.6931 C17.222,39.087 17.7639,39.2839 18.4996,39.2839 C19.5348,39.2839 20.2119,38.9291 20.5309,38.2194 C20.7262,37.7832 20.8238,36.9597 20.8238,35.7487 L20.8238,26.1882 L22.7477,26.1882 L22.7477,36.2566 M26.9762,35.905 C27.0218,36.7188 27.2138,37.3796 27.5524,37.8874 C28.1969,38.8379 29.333,39.3132 30.9606,39.3132 C31.6897,39.3132 32.3538,39.209 32.9528,39.0007 C34.1116,38.5971 34.691,37.8744 34.691,36.8327 C34.691,36.0515 34.4469,35.4948 33.9586,35.1628 C33.4638,34.8373 32.6891,34.5541 31.6344,34.3132 L29.691,33.8737 C28.4215,33.5873 27.5231,33.2715 26.9957,32.9265 C26.0843,32.3275 25.6285,31.4323 25.6285,30.2409 C25.6285,28.9519 26.0745,27.8939 26.9664,27.0671 C27.8583,26.2403 29.1214,25.8269 30.7555,25.8269 C32.2594,25.8269 33.5371,26.1898 34.5885,26.9157 C35.6399,27.6416 36.1656,28.8021 36.1656,30.3972 L34.3395,30.3972 C34.2418,29.629 34.0335,29.0398 33.7145,28.6296 C33.122,27.8809 32.1162,27.5066 30.6969,27.5066 C29.5511,27.5066 28.7275,27.7474 28.2262,28.2292 C27.7249,28.711 27.4742,29.2709 27.4742,29.9089 C27.4742,30.612 27.7672,31.1263 28.3531,31.4519 C28.7373,31.6602 29.6064,31.9206 30.9606,32.2331 L32.9723,32.6921 C33.9423,32.9135 34.691,33.2162 35.2184,33.6003 C36.1298,34.2709 36.5856,35.2442 36.5856,36.5202 C36.5856,38.1088 36.0078,39.2448 34.8522,39.9284 C33.6966,40.612 32.3538,40.9538 30.8238,40.9538 C29.04,40.9538 27.6435,40.4981 26.6344,39.5866 C25.6253,38.6817 25.1305,37.4545 25.15,35.905 L26.9762,35.905 " style="stroke:none;fill-rule:nonzero;fill:#ff4e24;fill-opacity:1;"/>
        </g>
    </g>
</svg>
